<mxfile host="app.diagrams.net" modified="2021-09-14T21:34:21.419Z" agent="5.0 (Windows NT 10.0; Win64; x64) AppleWebKit/537.36 (KHTML, like Gecko) Chrome/93.0.4577.82 Safari/537.36" etag="g3RbH5uiymjYydyYqoGB" version="15.2.7" type="github">
  <diagram id="C5RBs43oDa-KdzZeNtuy" name="Page-1">
    <mxGraphModel dx="868" dy="460" grid="1" gridSize="10" guides="1" tooltips="1" connect="1" arrows="1" fold="1" page="1" pageScale="1" pageWidth="1169" pageHeight="1654" math="0" shadow="0">
      <root>
        <mxCell id="WIyWlLk6GJQsqaUBKTNV-0" />
        <mxCell id="WIyWlLk6GJQsqaUBKTNV-1" parent="WIyWlLk6GJQsqaUBKTNV-0" />
        <mxCell id="LuQ_SsqMpc5qst0Bav_3-2" style="edgeStyle=orthogonalEdgeStyle;rounded=0;orthogonalLoop=1;jettySize=auto;html=1;entryX=0.5;entryY=0;entryDx=0;entryDy=0;" edge="1" parent="WIyWlLk6GJQsqaUBKTNV-1" source="LuQ_SsqMpc5qst0Bav_3-0" target="LuQ_SsqMpc5qst0Bav_3-1">
          <mxGeometry relative="1" as="geometry" />
        </mxCell>
        <mxCell id="LuQ_SsqMpc5qst0Bav_3-0" value="Begin" style="ellipse;whiteSpace=wrap;html=1;" vertex="1" parent="WIyWlLk6GJQsqaUBKTNV-1">
          <mxGeometry x="349" width="120" height="80" as="geometry" />
        </mxCell>
        <mxCell id="LuQ_SsqMpc5qst0Bav_3-4" style="edgeStyle=orthogonalEdgeStyle;rounded=0;orthogonalLoop=1;jettySize=auto;html=1;entryX=0.5;entryY=0;entryDx=0;entryDy=0;" edge="1" parent="WIyWlLk6GJQsqaUBKTNV-1" source="LuQ_SsqMpc5qst0Bav_3-1" target="LuQ_SsqMpc5qst0Bav_3-3">
          <mxGeometry relative="1" as="geometry" />
        </mxCell>
        <mxCell id="LuQ_SsqMpc5qst0Bav_3-1" value="Nhập tuổi (age)" style="shape=parallelogram;perimeter=parallelogramPerimeter;whiteSpace=wrap;html=1;fixedSize=1;" vertex="1" parent="WIyWlLk6GJQsqaUBKTNV-1">
          <mxGeometry x="349" y="130" width="120" height="60" as="geometry" />
        </mxCell>
        <mxCell id="LuQ_SsqMpc5qst0Bav_3-6" style="edgeStyle=orthogonalEdgeStyle;rounded=0;orthogonalLoop=1;jettySize=auto;html=1;entryX=0.5;entryY=0;entryDx=0;entryDy=0;" edge="1" parent="WIyWlLk6GJQsqaUBKTNV-1" source="LuQ_SsqMpc5qst0Bav_3-3" target="LuQ_SsqMpc5qst0Bav_3-5">
          <mxGeometry relative="1" as="geometry" />
        </mxCell>
        <mxCell id="LuQ_SsqMpc5qst0Bav_3-18" style="edgeStyle=orthogonalEdgeStyle;rounded=0;orthogonalLoop=1;jettySize=auto;html=1;entryX=0;entryY=0.5;entryDx=0;entryDy=0;" edge="1" parent="WIyWlLk6GJQsqaUBKTNV-1" source="LuQ_SsqMpc5qst0Bav_3-3" target="LuQ_SsqMpc5qst0Bav_3-8">
          <mxGeometry relative="1" as="geometry">
            <mxPoint x="510" y="340" as="targetPoint" />
          </mxGeometry>
        </mxCell>
        <mxCell id="LuQ_SsqMpc5qst0Bav_3-3" value="age &amp;gt;= 16" style="rhombus;whiteSpace=wrap;html=1;" vertex="1" parent="WIyWlLk6GJQsqaUBKTNV-1">
          <mxGeometry x="354" y="220" width="110" height="100" as="geometry" />
        </mxCell>
        <mxCell id="LuQ_SsqMpc5qst0Bav_3-13" style="edgeStyle=orthogonalEdgeStyle;rounded=0;orthogonalLoop=1;jettySize=auto;html=1;" edge="1" parent="WIyWlLk6GJQsqaUBKTNV-1" source="LuQ_SsqMpc5qst0Bav_3-5" target="LuQ_SsqMpc5qst0Bav_3-12">
          <mxGeometry relative="1" as="geometry" />
        </mxCell>
        <mxCell id="LuQ_SsqMpc5qst0Bav_3-5" value="Nhập cân nặng (weight) và &lt;br&gt;chiều cao (height)" style="shape=parallelogram;perimeter=parallelogramPerimeter;whiteSpace=wrap;html=1;fixedSize=1;" vertex="1" parent="WIyWlLk6GJQsqaUBKTNV-1">
          <mxGeometry x="308.5" y="360" width="201" height="80" as="geometry" />
        </mxCell>
        <mxCell id="LuQ_SsqMpc5qst0Bav_3-7" value="True" style="text;html=1;strokeColor=none;fillColor=none;align=center;verticalAlign=middle;whiteSpace=wrap;rounded=0;" vertex="1" parent="WIyWlLk6GJQsqaUBKTNV-1">
          <mxGeometry x="370" y="330" width="40" height="20" as="geometry" />
        </mxCell>
        <mxCell id="LuQ_SsqMpc5qst0Bav_3-26" style="edgeStyle=orthogonalEdgeStyle;rounded=0;orthogonalLoop=1;jettySize=auto;html=1;" edge="1" parent="WIyWlLk6GJQsqaUBKTNV-1" source="LuQ_SsqMpc5qst0Bav_3-8">
          <mxGeometry relative="1" as="geometry">
            <mxPoint x="410" y="110" as="targetPoint" />
            <Array as="points">
              <mxPoint x="640" y="110" />
            </Array>
          </mxGeometry>
        </mxCell>
        <mxCell id="LuQ_SsqMpc5qst0Bav_3-8" value="In chưa đủ tuổi" style="shape=parallelogram;perimeter=parallelogramPerimeter;whiteSpace=wrap;html=1;fixedSize=1;" vertex="1" parent="WIyWlLk6GJQsqaUBKTNV-1">
          <mxGeometry x="580" y="240" width="120" height="60" as="geometry" />
        </mxCell>
        <mxCell id="LuQ_SsqMpc5qst0Bav_3-10" value="False" style="text;html=1;strokeColor=none;fillColor=none;align=center;verticalAlign=middle;whiteSpace=wrap;rounded=0;" vertex="1" parent="WIyWlLk6GJQsqaUBKTNV-1">
          <mxGeometry x="540" y="250" width="40" height="20" as="geometry" />
        </mxCell>
        <mxCell id="LuQ_SsqMpc5qst0Bav_3-15" style="edgeStyle=orthogonalEdgeStyle;rounded=0;orthogonalLoop=1;jettySize=auto;html=1;" edge="1" parent="WIyWlLk6GJQsqaUBKTNV-1" source="LuQ_SsqMpc5qst0Bav_3-12" target="LuQ_SsqMpc5qst0Bav_3-14">
          <mxGeometry relative="1" as="geometry" />
        </mxCell>
        <mxCell id="LuQ_SsqMpc5qst0Bav_3-12" value="Chỉ số BMI&lt;br&gt;bmi&amp;nbsp; = weight / (height * height)" style="shape=parallelogram;perimeter=parallelogramPerimeter;whiteSpace=wrap;html=1;fixedSize=1;" vertex="1" parent="WIyWlLk6GJQsqaUBKTNV-1">
          <mxGeometry x="308.5" y="490" width="200" height="80" as="geometry" />
        </mxCell>
        <mxCell id="LuQ_SsqMpc5qst0Bav_3-17" value="" style="edgeStyle=orthogonalEdgeStyle;rounded=0;orthogonalLoop=1;jettySize=auto;html=1;" edge="1" parent="WIyWlLk6GJQsqaUBKTNV-1" source="LuQ_SsqMpc5qst0Bav_3-14" target="LuQ_SsqMpc5qst0Bav_3-16">
          <mxGeometry relative="1" as="geometry" />
        </mxCell>
        <mxCell id="LuQ_SsqMpc5qst0Bav_3-22" style="edgeStyle=orthogonalEdgeStyle;rounded=0;orthogonalLoop=1;jettySize=auto;html=1;entryX=0.5;entryY=0;entryDx=0;entryDy=0;" edge="1" parent="WIyWlLk6GJQsqaUBKTNV-1" source="LuQ_SsqMpc5qst0Bav_3-14" target="LuQ_SsqMpc5qst0Bav_3-21">
          <mxGeometry relative="1" as="geometry" />
        </mxCell>
        <mxCell id="LuQ_SsqMpc5qst0Bav_3-14" value="bmi &amp;lt; 18.5" style="rhombus;whiteSpace=wrap;html=1;" vertex="1" parent="WIyWlLk6GJQsqaUBKTNV-1">
          <mxGeometry x="110" y="590" width="130" height="120" as="geometry" />
        </mxCell>
        <mxCell id="LuQ_SsqMpc5qst0Bav_3-39" style="edgeStyle=orthogonalEdgeStyle;rounded=0;orthogonalLoop=1;jettySize=auto;html=1;" edge="1" parent="WIyWlLk6GJQsqaUBKTNV-1" source="LuQ_SsqMpc5qst0Bav_3-16">
          <mxGeometry relative="1" as="geometry">
            <mxPoint x="600" y="650" as="targetPoint" />
          </mxGeometry>
        </mxCell>
        <mxCell id="LuQ_SsqMpc5qst0Bav_3-16" value="In &quot;Underweight&quot;" style="shape=parallelogram;perimeter=parallelogramPerimeter;whiteSpace=wrap;html=1;fixedSize=1;" vertex="1" parent="WIyWlLk6GJQsqaUBKTNV-1">
          <mxGeometry x="338.5" y="620" width="140" height="60" as="geometry" />
        </mxCell>
        <mxCell id="LuQ_SsqMpc5qst0Bav_3-27" style="edgeStyle=orthogonalEdgeStyle;rounded=0;orthogonalLoop=1;jettySize=auto;html=1;entryX=0.5;entryY=0;entryDx=0;entryDy=0;" edge="1" parent="WIyWlLk6GJQsqaUBKTNV-1" source="LuQ_SsqMpc5qst0Bav_3-21" target="LuQ_SsqMpc5qst0Bav_3-23">
          <mxGeometry relative="1" as="geometry" />
        </mxCell>
        <mxCell id="LuQ_SsqMpc5qst0Bav_3-33" style="edgeStyle=orthogonalEdgeStyle;rounded=0;orthogonalLoop=1;jettySize=auto;html=1;entryX=0;entryY=0.5;entryDx=0;entryDy=0;" edge="1" parent="WIyWlLk6GJQsqaUBKTNV-1" source="LuQ_SsqMpc5qst0Bav_3-21" target="LuQ_SsqMpc5qst0Bav_3-30">
          <mxGeometry relative="1" as="geometry" />
        </mxCell>
        <mxCell id="LuQ_SsqMpc5qst0Bav_3-21" value="18.5 &amp;lt;= bmi &amp;lt; 25.0" style="rhombus;whiteSpace=wrap;html=1;" vertex="1" parent="WIyWlLk6GJQsqaUBKTNV-1">
          <mxGeometry x="110" y="750" width="130" height="120" as="geometry" />
        </mxCell>
        <mxCell id="LuQ_SsqMpc5qst0Bav_3-34" style="edgeStyle=orthogonalEdgeStyle;rounded=0;orthogonalLoop=1;jettySize=auto;html=1;" edge="1" parent="WIyWlLk6GJQsqaUBKTNV-1" source="LuQ_SsqMpc5qst0Bav_3-23" target="LuQ_SsqMpc5qst0Bav_3-31">
          <mxGeometry relative="1" as="geometry" />
        </mxCell>
        <mxCell id="LuQ_SsqMpc5qst0Bav_3-42" style="edgeStyle=orthogonalEdgeStyle;rounded=0;orthogonalLoop=1;jettySize=auto;html=1;entryX=0;entryY=0.5;entryDx=0;entryDy=0;" edge="1" parent="WIyWlLk6GJQsqaUBKTNV-1" source="LuQ_SsqMpc5qst0Bav_3-23" target="LuQ_SsqMpc5qst0Bav_3-32">
          <mxGeometry relative="1" as="geometry">
            <Array as="points">
              <mxPoint x="175" y="1130" />
            </Array>
          </mxGeometry>
        </mxCell>
        <mxCell id="LuQ_SsqMpc5qst0Bav_3-23" value="25.0 &amp;lt;= bmi &amp;lt; 30.0" style="rhombus;whiteSpace=wrap;html=1;" vertex="1" parent="WIyWlLk6GJQsqaUBKTNV-1">
          <mxGeometry x="110" y="910" width="130" height="120" as="geometry" />
        </mxCell>
        <mxCell id="LuQ_SsqMpc5qst0Bav_3-36" style="edgeStyle=orthogonalEdgeStyle;rounded=0;orthogonalLoop=1;jettySize=auto;html=1;" edge="1" parent="WIyWlLk6GJQsqaUBKTNV-1" source="LuQ_SsqMpc5qst0Bav_3-30">
          <mxGeometry relative="1" as="geometry">
            <mxPoint x="600" y="810" as="targetPoint" />
          </mxGeometry>
        </mxCell>
        <mxCell id="LuQ_SsqMpc5qst0Bav_3-30" value="In &quot;Normal&quot;" style="shape=parallelogram;perimeter=parallelogramPerimeter;whiteSpace=wrap;html=1;fixedSize=1;" vertex="1" parent="WIyWlLk6GJQsqaUBKTNV-1">
          <mxGeometry x="338.5" y="780" width="140" height="60" as="geometry" />
        </mxCell>
        <mxCell id="LuQ_SsqMpc5qst0Bav_3-37" style="edgeStyle=orthogonalEdgeStyle;rounded=0;orthogonalLoop=1;jettySize=auto;html=1;" edge="1" parent="WIyWlLk6GJQsqaUBKTNV-1" source="LuQ_SsqMpc5qst0Bav_3-31">
          <mxGeometry relative="1" as="geometry">
            <mxPoint x="600" y="970" as="targetPoint" />
          </mxGeometry>
        </mxCell>
        <mxCell id="LuQ_SsqMpc5qst0Bav_3-31" value="In &quot;Overweight&quot;" style="shape=parallelogram;perimeter=parallelogramPerimeter;whiteSpace=wrap;html=1;fixedSize=1;" vertex="1" parent="WIyWlLk6GJQsqaUBKTNV-1">
          <mxGeometry x="338.5" y="940" width="140" height="60" as="geometry" />
        </mxCell>
        <mxCell id="LuQ_SsqMpc5qst0Bav_3-38" style="edgeStyle=orthogonalEdgeStyle;rounded=0;orthogonalLoop=1;jettySize=auto;html=1;" edge="1" parent="WIyWlLk6GJQsqaUBKTNV-1" source="LuQ_SsqMpc5qst0Bav_3-32">
          <mxGeometry relative="1" as="geometry">
            <mxPoint x="600" y="1130" as="targetPoint" />
          </mxGeometry>
        </mxCell>
        <mxCell id="LuQ_SsqMpc5qst0Bav_3-32" value="In &quot;Obese&quot;" style="shape=parallelogram;perimeter=parallelogramPerimeter;whiteSpace=wrap;html=1;fixedSize=1;" vertex="1" parent="WIyWlLk6GJQsqaUBKTNV-1">
          <mxGeometry x="339" y="1100" width="140" height="60" as="geometry" />
        </mxCell>
        <mxCell id="LuQ_SsqMpc5qst0Bav_3-40" value="" style="endArrow=classic;html=1;rounded=0;" edge="1" parent="WIyWlLk6GJQsqaUBKTNV-1">
          <mxGeometry width="50" height="50" relative="1" as="geometry">
            <mxPoint x="600" y="650" as="sourcePoint" />
            <mxPoint x="470" y="1300" as="targetPoint" />
            <Array as="points">
              <mxPoint x="600" y="1300" />
            </Array>
          </mxGeometry>
        </mxCell>
        <mxCell id="LuQ_SsqMpc5qst0Bav_3-41" value="End" style="ellipse;whiteSpace=wrap;html=1;" vertex="1" parent="WIyWlLk6GJQsqaUBKTNV-1">
          <mxGeometry x="349" y="1260" width="120" height="80" as="geometry" />
        </mxCell>
        <mxCell id="LuQ_SsqMpc5qst0Bav_3-43" value="False" style="text;html=1;strokeColor=none;fillColor=none;align=center;verticalAlign=middle;whiteSpace=wrap;rounded=0;" vertex="1" parent="WIyWlLk6GJQsqaUBKTNV-1">
          <mxGeometry x="130" y="720" width="40" height="20" as="geometry" />
        </mxCell>
        <mxCell id="LuQ_SsqMpc5qst0Bav_3-44" value="False" style="text;html=1;strokeColor=none;fillColor=none;align=center;verticalAlign=middle;whiteSpace=wrap;rounded=0;" vertex="1" parent="WIyWlLk6GJQsqaUBKTNV-1">
          <mxGeometry x="130" y="890" width="40" height="20" as="geometry" />
        </mxCell>
        <mxCell id="LuQ_SsqMpc5qst0Bav_3-45" value="False" style="text;html=1;strokeColor=none;fillColor=none;align=center;verticalAlign=middle;whiteSpace=wrap;rounded=0;" vertex="1" parent="WIyWlLk6GJQsqaUBKTNV-1">
          <mxGeometry x="130" y="1120" width="40" height="20" as="geometry" />
        </mxCell>
        <mxCell id="LuQ_SsqMpc5qst0Bav_3-46" value="True" style="text;html=1;strokeColor=none;fillColor=none;align=center;verticalAlign=middle;whiteSpace=wrap;rounded=0;" vertex="1" parent="WIyWlLk6GJQsqaUBKTNV-1">
          <mxGeometry x="299" y="950" width="40" height="20" as="geometry" />
        </mxCell>
        <mxCell id="LuQ_SsqMpc5qst0Bav_3-47" value="True" style="text;html=1;strokeColor=none;fillColor=none;align=center;verticalAlign=middle;whiteSpace=wrap;rounded=0;" vertex="1" parent="WIyWlLk6GJQsqaUBKTNV-1">
          <mxGeometry x="299" y="790" width="40" height="20" as="geometry" />
        </mxCell>
        <mxCell id="LuQ_SsqMpc5qst0Bav_3-48" value="True" style="text;html=1;strokeColor=none;fillColor=none;align=center;verticalAlign=middle;whiteSpace=wrap;rounded=0;" vertex="1" parent="WIyWlLk6GJQsqaUBKTNV-1">
          <mxGeometry x="299" y="630" width="40" height="20" as="geometry" />
        </mxCell>
      </root>
    </mxGraphModel>
  </diagram>
</mxfile>
